<!-- icon666.com - MILLIONS OF FREE VECTOR ICONS --><svg xmlns="http://www.w3.org/2000/svg" viewBox="0 0 64 64"><g id="tire-automobile-car-car_Parts" data-name="tire-automobile-car-car Parts"><path d="M55.29,42h4.15a3.986,3.986,0,0,0-3.3-1.99C55.88,40.69,55.6,41.35,55.29,42Z"></path><path d="M9.72,42.87l-1.71.98a26.433,26.433,0,0,0,2.92,3.8l1.39-1.39,1.42,1.42-1.39,1.39a26.433,26.433,0,0,0,3.8,2.92l.98-1.71,1.74,1-.99,1.71a25.729,25.729,0,0,0,4.43,1.85l.51-1.92,1.93.52-.51,1.91a25.726,25.726,0,0,0,4.76.62V54h2v1.97a25.726,25.726,0,0,0,4.76-.62l-.51-1.91,1.93-.52.51,1.92a25.729,25.729,0,0,0,4.43-1.85l-.99-1.71,1.74-1,.98,1.71a26.433,26.433,0,0,0,3.8-2.92l-1.39-1.39,1.42-1.42,1.39,1.39a26.433,26.433,0,0,0,2.92-3.8l-1.71-.98,1-1.74,1.71.99a25.729,25.729,0,0,0,1.85-4.43l-1.92-.51.52-1.93,1.91.51A25.726,25.726,0,0,0,55.97,31H54V29h1.97a25.726,25.726,0,0,0-.62-4.76l-1.91.51-.52-1.93,1.92-.51a25.729,25.729,0,0,0-1.85-4.43l-1.71.99-1-1.74,1.71-.98a26.433,26.433,0,0,0-2.92-3.8l-1.39,1.39-1.42-1.42,1.39-1.39a26.433,26.433,0,0,0-3.8-2.92l-.98,1.71-1.74-1,.99-1.71a25.729,25.729,0,0,0-4.43-1.85l-.51,1.92-1.93-.52.51-1.91A25.726,25.726,0,0,0,31,4.03V6H29V4.03a25.726,25.726,0,0,0-4.76.62l.51,1.91-1.93.52-.51-1.92a25.729,25.729,0,0,0-4.43,1.85l.99,1.71-1.74,1-.98-1.71a26.433,26.433,0,0,0-3.8,2.92l1.39,1.39-1.42,1.42-1.39-1.39a26.433,26.433,0,0,0-2.92,3.8l1.71.98-1,1.74-1.71-.99a25.729,25.729,0,0,0-1.85,4.43l1.92.51-.52,1.93-1.91-.51A25.726,25.726,0,0,0,4.03,29H6v2H4.03a25.726,25.726,0,0,0,.62,4.76l1.91-.51.52,1.93-1.92.51a25.729,25.729,0,0,0,1.85,4.43l1.71-.99ZM30,11A19,19,0,1,1,11,30,19.017,19.017,0,0,1,30,11Z"></path><path d="M30,47A17,17,0,1,0,13,30,17.024,17.024,0,0,0,30,47Zm0-32A15,15,0,1,1,15,30,15.018,15.018,0,0,1,30,15Z"></path><path d="M12,60H56a3.98,3.98,0,0,0,3.44-2H8.56A3.98,3.98,0,0,0,12,60Z"></path><path d="M23.68,27.38a.987.987,0,0,1-.92.62H17.17a11.85,11.85,0,0,0,0,4h5.59a.987.987,0,0,1,.92.62,1,1,0,0,1-.21,1.09l-3.96,3.94a13.1,13.1,0,0,0,2.83,2.83l3.95-3.95a1,1,0,0,1,1.09-.21.987.987,0,0,1,.62.92v5.59a11.85,11.85,0,0,0,4,0V37.24a.987.987,0,0,1,.62-.92,1,1,0,0,1,1.09.21l3.95,3.95a13.1,13.1,0,0,0,2.83-2.83l-3.96-3.94a1,1,0,0,1-.21-1.09.987.987,0,0,1,.92-.62h5.59a11.85,11.85,0,0,0,0-4H37.24a.987.987,0,0,1-.92-.62,1,1,0,0,1,.21-1.09l3.96-3.94a13.188,13.188,0,0,0-2.84-2.84l-3.94,3.96a1.007,1.007,0,0,1-.71.29,1.015,1.015,0,0,1-1-1V17.17a11.85,11.85,0,0,0-4,0v5.59a1.015,1.015,0,0,1-1,1,1.007,1.007,0,0,1-.71-.29l-3.94-3.96a13.188,13.188,0,0,0-2.84,2.84l3.96,3.94A1,1,0,0,1,23.68,27.38Z"></path><path d="M60,44H54.23c-.39.69-.82,1.35-1.27,2H60Z"></path><path d="M60,48H51.43a28.472,28.472,0,0,1-4.14,4H60Z"></path><path d="M8,47.29V52h4.71A28.362,28.362,0,0,1,8,47.29Z"></path><path d="M60,54H44.4a27.484,27.484,0,0,1-4.03,2H60Z"></path><path d="M15.6,54H8v2H19.63A27.484,27.484,0,0,1,15.6,54Z"></path></g></svg>