<!-- icon666.com - MILLIONS OF FREE VECTOR ICONS --><svg viewBox="-56 0 464 464.00884" xmlns="http://www.w3.org/2000/svg"><path d="m176.054688.0078125c-82.414063-.0234375-153.808594 57.1445315-171.804688 137.5703125-17.992188 80.425781 22.230469 162.570313 96.796875 197.671875 1.066406.5 2.230469.757812 3.40625.757812h143.28125c1.183594-.007812 2.351563-.28125 3.417969-.800781 74.53125-35.128906 114.710937-117.269531 96.699218-197.675781-18.011718-80.402344-89.398437-137.546875-171.796874-137.5234375zm0 0" fill="#78777f"></path><path d="m288.054688 176.007812c0 61.855469-50.144532 112-112 112-61.855469 0-112-50.144531-112-112 0-61.855468 50.144531-112 112-112 61.855468 0 112 50.144532 112 112zm0 0" fill="#aeadb3"></path><path d="m256.054688 176.007812c0 44.183594-35.816407 80-80 80-44.183594 0-80-35.816406-80-80 0-44.183593 35.816406-80 80-80 44.183593 0 80 35.816407 80 80zm0 0" fill="#fafbfb"></path><path d="m168.054688 32.007812c-2.769532 0-5.34375-1.4375-6.800782-3.792968-1.457031-2.359375-1.589844-5.304688-.351562-7.78125l8-16c1.976562-3.957032 6.78125-5.558594 10.738281-3.585938 3.953125 1.976563 5.558594 6.78125 3.582031 10.738282l-8 16c-1.355468 2.714843-4.132812 4.425781-7.167968 4.421874zm0 0" fill="#57555c"></path><path d="m110.503906 46.640625h-.578125c-4.402343-.316406-7.71875-4.140625-7.40625-8.542969l1.261719-17.847656c.316406-4.410156 4.144531-7.726562 8.554688-7.410156 4.40625.316406 7.722656 4.144531 7.40625 8.554687l-1.289063 17.8125c-.296875 4.179688-3.761719 7.417969-7.949219 7.433594zm0 0" fill="#57555c"></path><path d="m62.917969 82.183594c-3.441407.003906-6.5-2.199219-7.589844-5.460938l-5.671875-16.976562c-1.398438-4.199219.871094-8.734375 5.066406-10.132813 4.199219-1.398437 8.734375.871094 10.132813 5.066407l5.65625 16.976562c.8125 2.441406.402343 5.121094-1.101563 7.207031-1.503906 2.085938-3.917968 3.320313-6.492187 3.320313zm0 0" fill="#57555c"></path><path d="m32.566406 133.234375c-2.320312 0-4.527344-1.003906-6.046875-2.753906l-11.71875-13.519531c-1.921875-2.152344-2.535156-5.171876-1.605469-7.902344.933594-2.730469 3.261719-4.75 6.09375-5.285156 2.835938-.53125 5.738282.5 7.597657 2.707031l11.71875 13.527343c2.050781 2.367188 2.535156 5.710938 1.234375 8.5625-1.300782 2.847657-4.140625 4.675782-7.273438 4.679688zm0 0" fill="#57555c"></path><path d="m24.054688 192.007812c-1.238282 0-2.460938-.285156-3.566407-.839843l-16-8c-3.957031-1.972657-5.558593-6.78125-3.585937-10.734375 1.976562-3.957032 6.78125-5.558594 10.738281-3.585938l16 8c3.324219 1.660156 5.070313 5.386719 4.214844 9-.855469 3.617188-4.085938 6.167969-7.800781 6.160156zm0 0" fill="#57555c"></path><path d="m38.695312 249.609375c-.191406 0-.382812 0-.578124 0l-17.847657-1.273437c-2.910156-.121094-5.527343-1.816407-6.824219-4.425782-1.300781-2.609375-1.078124-5.71875.582032-8.117187 1.65625-2.398438 4.488281-3.703125 7.386718-3.410157l17.839844 1.273438c4.417969.15625 7.875 3.863281 7.722656 8.28125-.15625 4.417969-3.863281 7.875-8.28125 7.71875zm0 0" fill="#57555c"></path><path d="m57.261719 302.808594c-3.925781.007812-7.277344-2.839844-7.910157-6.714844-.628906-3.878906 1.648438-7.640625 5.375-8.878906l16.976563-5.652344c4.195313-1.398438 8.730469.871094 10.128906 5.070312 1.394531 4.199219-.875 8.730469-5.074219 10.128907l-16.96875 5.65625c-.8125.265625-1.667968.398437-2.527343.390625zm0 0" fill="#57555c"></path><path d="m294.847656 302.808594c-3.445312 0-6.503906-2.203125-7.59375-5.472656l-5.65625-16.976563c-1.398437-4.195313.871094-8.730469 5.070313-10.128906 4.195312-1.398438 8.734375.867187 10.132812 5.066406l5.652344 16.976563c.816406 2.441406.410156 5.125-1.09375 7.210937-1.503906 2.089844-3.921875 3.324219-6.496094 3.324219zm0 0" fill="#57555c"></path><path d="m331.253906 248.296875c-2.320312 0-4.527344-1.007813-6.046875-2.761719l-11.703125-13.527344c-2.898437-3.335937-2.539062-8.390624.800782-11.285156 3.335937-2.898437 8.390624-2.539062 11.285156.796875l11.722656 13.519531c2.050781 2.367188 2.53125 5.714844 1.230469 8.5625-1.296875 2.847657-4.140625 4.675782-7.273438 4.679688zm0 0" fill="#57555c"></path><path d="m344.054688 184.007812c-1.238282 0-2.460938-.285156-3.566407-.839843l-16-8c-3.957031-1.972657-5.558593-6.78125-3.585937-10.734375 1.976562-3.957032 6.78125-5.558594 10.738281-3.585938l16 8c3.324219 1.660156 5.070313 5.386719 4.214844 9-.855469 3.617188-4.085938 6.167969-7.800781 6.160156zm0 0" fill="#57555c"></path><path d="m331.253906 119.722656c-.191406 0-.382812 0-.574218 0l-17.824219-1.3125c-2.914063-.117187-5.535157-1.8125-6.835938-4.421875-1.304687-2.613281-1.082031-5.722656.578125-8.121093 1.65625-2.402344 4.492188-3.707032 7.394532-3.410157l17.847656 1.273438c4.417968.15625 7.871094 3.863281 7.714844 8.28125s-3.867188 7.875-8.285157 7.71875zm0 0" fill="#57555c"></path><path d="m277.878906 70.863281c-3.917968-.007812-7.25-2.851562-7.878906-6.71875-.625-3.863281 1.636719-7.617187 5.351562-8.863281l16.96875-5.671875c4.195313-1.398437 8.730469.871094 10.128907 5.066406 1.398437 4.199219-.867188 8.734375-5.066407 10.132813l-16.976562 5.65625c-.816406.269531-1.667969.402344-2.527344.398437zm0 0" fill="#57555c"></path><path d="m226.839844 40.511719c-3.339844 0-6.328125-2.070313-7.496094-5.199219-1.167969-3.125-.273438-6.652344 2.246094-8.839844l13.511718-11.71875c2.15625-1.921875 5.175782-2.53125 7.90625-1.601562 2.730469.929687 4.746094 3.257812 5.28125 6.089844.535157 2.835937-.5 5.738281-2.707031 7.597656l-13.527343 11.722656c-1.445313 1.257812-3.296876 1.949219-5.214844 1.949219zm0 0" fill="#57555c"></path><path d="m40.054688 320.007812h272c22.089843 0 40 17.910157 40 40v64c0 22.09375-17.910157 40-40 40h-272c-22.089844 0-40.0000005-17.90625-40.0000005-40v-64c0-22.089843 17.9101565-40 40.0000005-40zm0 0" fill="#57555c"></path><g fill="#3c3b41"><path d="m56.054688 352.007812c-2.769532 0-5.34375-1.4375-6.800782-3.792968-1.457031-2.359375-1.589844-5.304688-.351562-7.78125l8-16c1.976562-3.957032 6.78125-5.558594 10.738281-3.585938 3.953125 1.976563 5.558594 6.78125 3.582031 10.738282l-8 16c-1.355468 2.714843-4.132812 4.425781-7.167968 4.421874zm0 0" fill="#3c3b41"></path><path d="m176.054688 352.007812c-2.769532 0-5.34375-1.4375-6.800782-3.792968-1.457031-2.359375-1.589844-5.304688-.351562-7.78125l8-16c1.976562-3.957032 6.78125-5.558594 10.738281-3.585938 3.953125 1.976563 5.558594 6.78125 3.582031 10.738282l-8 16c-1.355468 2.714843-4.132812 4.425781-7.167968 4.421874zm0 0" fill="#3c3b41"></path><path d="m96.054688 352.007812c-2.769532 0-5.34375-1.4375-6.800782-3.792968-1.457031-2.359375-1.589844-5.304688-.351562-7.78125l8-16c1.976562-3.957032 6.78125-5.558594 10.738281-3.585938 3.953125 1.976563 5.558594 6.78125 3.582031 10.738282l-8 16c-1.355468 2.714843-4.132812 4.425781-7.167968 4.421874zm0 0" fill="#3c3b41"></path><path d="m136.054688 352.007812c-2.769532 0-5.34375-1.4375-6.800782-3.792968-1.457031-2.359375-1.589844-5.304688-.351562-7.78125l8-16c1.976562-3.957032 6.78125-5.558594 10.738281-3.585938 3.953125 1.976563 5.558594 6.78125 3.582031 10.738282l-8 16c-1.355468 2.714843-4.132812 4.425781-7.167968 4.421874zm0 0" fill="#3c3b41"></path><path d="m216.054688 352.007812c-2.769532 0-5.34375-1.4375-6.800782-3.792968-1.457031-2.359375-1.589844-5.304688-.351562-7.78125l8-16c1.976562-3.957032 6.78125-5.558594 10.738281-3.585938 3.953125 1.976563 5.558594 6.78125 3.582031 10.738282l-8 16c-1.355468 2.714843-4.132812 4.425781-7.167968 4.421874zm0 0" fill="#3c3b41"></path><path d="m256.054688 352.007812c-2.769532 0-5.34375-1.4375-6.800782-3.792968-1.457031-2.359375-1.589844-5.304688-.351562-7.78125l8-16c1.976562-3.957032 6.78125-5.558594 10.738281-3.585938 3.953125 1.976563 5.558594 6.78125 3.582031 10.738282l-8 16c-1.355468 2.714843-4.132812 4.425781-7.167968 4.421874zm0 0" fill="#3c3b41"></path><path d="m296.054688 352.007812c-2.769532 0-5.34375-1.4375-6.800782-3.792968-1.457031-2.359375-1.589844-5.304688-.351562-7.78125l8-16c1.976562-3.957032 6.78125-5.558594 10.738281-3.585938 3.953125 1.976563 5.558594 6.78125 3.582031 10.738282l-8 16c-1.355468 2.714843-4.132812 4.425781-7.167968 4.421874zm0 0" fill="#3c3b41"></path><path d="m64.054688 464.007812c-3.046876.015626-5.839844-1.699218-7.199219-4.421874l-8-16c-1.976563-3.957032-.371094-8.761719 3.582031-10.738282 3.957031-1.972656 8.761719-.371094 10.738281 3.585938l8 16c1.234375 2.472656 1.105469 5.410156-.34375 7.765625s-4.011719 3.796875-6.777343 3.808593zm0 0" fill="#3c3b41"></path><path d="m104.054688 464.007812c-3.046876.015626-5.839844-1.699218-7.199219-4.421874l-8-16c-1.976563-3.957032-.371094-8.761719 3.582031-10.738282 3.957031-1.972656 8.761719-.371094 10.738281 3.585938l8 16c1.234375 2.472656 1.105469 5.410156-.34375 7.765625s-4.011719 3.796875-6.777343 3.808593zm0 0" fill="#3c3b41"></path><path d="m144.054688 464.007812c-3.046876.015626-5.839844-1.699218-7.199219-4.421874l-8-16c-1.976563-3.957032-.371094-8.761719 3.582031-10.738282 3.957031-1.972656 8.761719-.371094 10.738281 3.585938l8 16c1.234375 2.472656 1.105469 5.410156-.34375 7.765625s-4.011719 3.796875-6.777343 3.808593zm0 0" fill="#3c3b41"></path><path d="m184.054688 464.007812c-3.046876.015626-5.839844-1.699218-7.199219-4.421874l-8-16c-1.976563-3.957032-.371094-8.761719 3.582031-10.738282 3.957031-1.972656 8.761719-.371094 10.738281 3.585938l8 16c1.234375 2.472656 1.105469 5.410156-.34375 7.765625s-4.011719 3.796875-6.777343 3.808593zm0 0" fill="#3c3b41"></path><path d="m224.054688 464.007812c-3.046876.015626-5.839844-1.699218-7.199219-4.421874l-8-16c-1.976563-3.957032-.371094-8.761719 3.582031-10.738282 3.957031-1.972656 8.761719-.371094 10.738281 3.585938l8 16c1.234375 2.472656 1.105469 5.410156-.34375 7.765625s-4.011719 3.796875-6.777343 3.808593zm0 0" fill="#3c3b41"></path><path d="m264.054688 464.007812c-3.046876.015626-5.839844-1.699218-7.199219-4.421874l-8-16c-1.976563-3.957032-.371094-8.761719 3.582031-10.738282 3.957031-1.972656 8.761719-.371094 10.738281 3.585938l8 16c1.234375 2.472656 1.105469 5.410156-.34375 7.765625s-4.011719 3.796875-6.777343 3.808593zm0 0" fill="#3c3b41"></path><path d="m304.054688 464.007812c-3.046876.015626-5.839844-1.699218-7.199219-4.421874l-8-16c-1.976563-3.957032-.371094-8.761719 3.582031-10.738282 3.957031-1.972656 8.761719-.371094 10.738281 3.585938l8 16c1.234375 2.472656 1.105469 5.410156-.34375 7.765625s-4.011719 3.796875-6.777343 3.808593zm0 0" fill="#3c3b41"></path><path d="m344.054688 384.007812h-336c-4.417969 0-8.0000005-3.582031-8.0000005-8 0-4.417968 3.5820315-8 8.0000005-8h336c4.417968 0 8 3.582032 8 8 0 4.417969-3.582032 8-8 8zm0 0" fill="#3c3b41"></path><path d="m344.054688 408.007812h-336c-4.417969 0-8.0000005-3.582031-8.0000005-8 0-4.417968 3.5820315-8 8.0000005-8h336c4.417968 0 8 3.582032 8 8 0 4.417969-3.582032 8-8 8zm0 0" fill="#3c3b41"></path></g><path d="m176.054688 96.007812c-44.183594 0-80 35.816407-80 80 0 44.183594 35.816406 80 80 80 44.183593 0 80-35.816406 80-80-.046876-44.160156-35.835938-79.949218-80-80zm0 144c-35.347657 0-64-28.652343-64-64 0-35.34375 28.652343-64 64-64 35.347656 0 64 28.65625 64 64-.039063 35.332032-28.671876 63.960938-64 64zm0 0" fill="#002d6b" style="fill: rgb(35, 42, 52);"></path><path d="m288.054688 176.007812c0-61.855468-50.144532-112-112-112-61.855469 0-112 50.144532-112 112 0 61.855469 50.144531 112 112 112 61.828124-.066406 111.933593-50.171874 112-112zm-112 96c-53.019532 0-96-42.980468-96-96 0-53.019531 42.980468-96 96-96 53.019531 0 96 42.980469 96 96-.058594 52.996094-43.003907 95.945313-96 96zm0 0" fill="#002d6b" style="fill: rgb(35, 42, 52);"></path><path d="m312.054688 320.007812h-34.96875c8.070312-5.675781 15.644531-12.019531 22.648437-18.96875.285156-.246093.554687-.511718.800781-.796874 15.917969-16.0625 28.625-35.015626 37.433594-55.839844.355469-.621094.625-1.285156.796875-1.976563 8.640625-20.898437 13.15625-43.269531 13.289063-65.882812v-.054688c0-.160156 0-.320312 0-.480469.011718-22.917968-4.472657-45.617187-13.207032-66.808593l-.058594-.152344c-8.777343-21.203125-21.601562-40.496094-37.757812-56.796875-.191406-.226562-.398438-.441406-.617188-.640625-50.121093-50.25-125.5625-65.402344-191.199218-38.402344h-.070313c-21.25 8.777344-40.578125 21.617188-56.90625 37.800781-.21875.179688-.425781.375-.617187.585938-50.179688 49.894531-65.367188 125.105469-38.46875 190.558594.179687.667968.445312 1.308594.796875 1.90625 8.679687 20.660156 21.195312 39.492187 36.882812 55.492187.523438.695313 1.15625 1.300781 1.871094 1.792969 6.917969 6.828125 14.386719 13.070312 22.335937 18.664062h-34.984374c-22.082032.027344-39.9726568 17.921876-40.0000005 40v64c.0273437 22.082032 17.9179685 39.972657 40.0000005 40h272c22.082031-.027343 39.972656-17.917968 40-40v-64c-.027344-22.078124-17.917969-39.972656-40-40zm-296 64h320v8h-320zm56.726562-85.941406 4-1.328125c4.199219-1.398437 6.46875-5.933593 5.074219-10.128906-1.398438-4.199219-5.929688-6.46875-10.128907-5.074219l-12.070312 4c-10.1875-10.863281-18.820312-23.089844-25.648438-36.328125l4.136719.289063h.574219c4.417969.15625 8.125-3.300782 8.28125-7.71875.152344-4.417969-3.304688-8.125-7.722656-8.28125l-12.6875-.902344c-5.316406-13.945312-8.652344-28.5625-9.902344-43.433594l3.816406 1.914063c3.953125 1.972656 8.761719.367187 10.734375-3.585938 1.976563-3.953125.371094-8.761719-3.582031-10.734375l-11.351562-5.546875c.394531-14.921875 2.890624-29.714843 7.40625-43.941406l2.808593 3.238281c2.898438 3.339844 7.953125 3.695313 11.292969.796875 3.335938-2.898437 3.691406-7.953125.792969-11.292969l-8.320313-9.597656c6.128906-13.574218 14.113282-26.230468 23.730469-37.601562l1.3125 3.945312c1.398437 4.195313 5.933594 6.464844 10.128906 5.066406 4.199219-1.398437 6.46875-5.933593 5.070313-10.132812l-4-11.957031c10.84375-10.238281 23.058594-18.910157 36.296875-25.777344l-.296875 4.152344c-.3125 4.402343 3.003906 8.226562 7.40625 8.542969h.578125c4.203125.011718 7.699219-3.238282 8-7.433594l.894531-12.636719c13.921875-5.320313 28.519531-8.652344 43.367188-9.898437l-1.878907 3.753906c-1.972656 3.953125-.371093 8.761718 3.585938 10.734375 3.953125 1.976562 8.757812.371093 10.734375-3.582031l5.640625-11.328126c14.921875.394532 29.714843 2.890626 43.945312 7.40625l-3.203125 2.808594c-3.097656 2.941406-3.335937 7.800782-.539062 11.035156 2.792968 3.230469 7.636718 3.695313 10.996094 1.054688l9.601562-8.320312c13.574219 6.125 26.226562 14.109374 37.597656 23.726562l-3.933594 1.3125c-4.199218 1.394531-6.46875 5.929688-5.074218 10.128906 1.398437 4.195313 5.929687 6.464844 10.128906 5.070313l11.953125-4c10.242187 10.839843 18.917969 23.058593 25.78125 36.296875l-4.152344-.296875c-2.953125-.398438-5.886719.878906-7.605469 3.316406s-1.941406 5.628906-.574218 8.277344c1.367187 2.652343 4.09375 4.320312 7.078125 4.335937l12.640625.894532c5.316406 13.933593 8.644531 28.546874 9.886718 43.40625l-3.75-1.878907c-3.957031-1.972656-8.761718-.371093-10.738281 3.585938-1.972656 3.953125-.371093 8.761719 3.585938 10.734375l11.398437 5.695312c-.457031 14.886719-3.003906 29.632813-7.566406 43.808594l-2.722656-3.136719c-2.894532-3.335937-7.949219-3.695312-11.285156-.796875-3.339844 2.894532-3.699219 7.949219-.800782 11.285156l8.351563 9.601563c-6.144531 13.582031-14.128907 26.25-23.738281 37.648437l-1.335938-4c-1.398438-4.199218-5.933594-6.46875-10.128906-5.070312-4.199219 1.398438-6.46875 5.9375-5.070313 10.132812l4 12.074219c-11.730469 11.175781-25.109375 20.488281-39.664062 27.613281h-139.65625c-12.039063-5.871093-23.289063-13.242187-33.480469-21.941406zm-32.726562 37.941406h11.054687l-2.214844 4.425782c-1.972656 3.953125-.371093 8.761718 3.585938 10.734375 3.953125 1.976562 8.757812.371093 10.734375-3.582031l5.785156-11.578126h22.109375l-2.214844 4.425782c-1.972656 3.953125-.371093 8.761718 3.585938 10.734375 3.953125 1.976562 8.757812.371093 10.734375-3.582031l5.785156-11.578126h22.109375l-2.214844 4.425782c-1.972656 3.953125-.371093 8.761718 3.585938 10.734375 3.953125 1.976562 8.757812.371093 10.734375-3.582031l5.785156-11.578126h22.109375l-2.214844 4.425782c-1.972656 3.953125-.371093 8.761718 3.585938 10.734375 3.953125 1.976562 8.757812.371093 10.734375-3.582031l5.785156-11.578126h22.109375l-2.214844 4.425782c-1.972656 3.953125-.371093 8.761718 3.585938 10.734375 3.953125 1.976562 8.757812.371093 10.734375-3.582031l5.785156-11.578126h22.109375l-2.214844 4.425782c-1.972656 3.953125-.371093 8.761718 3.585938 10.734375 3.953125 1.976562 8.757812.371093 10.734375-3.582031l5.785156-11.578126h22.109375l-2.214844 4.425782c-1.972656 3.953125-.371093 8.761718 3.585938 10.734375 3.953125 1.976562 8.757812.371093 10.734375-3.582031l5.785156-11.578126h3.054688c13.253906 0 24 10.746094 24 24v8h-320v-8c0-13.253906 10.746093-24 24-24zm272 112h-3.054688l-5.746094-11.574218c-1.972656-3.957032-6.78125-5.558594-10.734375-3.585938-3.953125 1.976563-5.558593 6.78125-3.585937 10.738282l2.21875 4.421874h-22.152344l-5.746094-11.574218c-1.972656-3.957032-6.78125-5.558594-10.734375-3.585938-3.953125 1.976563-5.558593 6.78125-3.585937 10.738282l2.21875 4.421874h-22.152344l-5.746094-11.574218c-1.972656-3.957032-6.78125-5.558594-10.734375-3.585938-3.953125 1.976563-5.558593 6.78125-3.585937 10.738282l2.21875 4.421874h-22.152344l-5.746094-11.574218c-1.972656-3.957032-6.78125-5.558594-10.734375-3.585938-3.953125 1.976563-5.558593 6.78125-3.585937 10.738282l2.21875 4.421874h-22.152344l-5.746094-11.574218c-1.972656-3.957032-6.78125-5.558594-10.734375-3.585938-3.953125 1.976563-5.558593 6.78125-3.585937 10.738282l2.21875 4.421874h-22.152344l-5.746094-11.574218c-1.972656-3.957032-6.78125-5.558594-10.734375-3.585938-3.953125 1.976563-5.558593 6.78125-3.585937 10.738282l2.21875 4.421874h-22.152344l-5.746094-11.574218c-1.972656-3.957032-6.78125-5.558594-10.734375-3.585938-3.953125 1.976563-5.558593 6.78125-3.585937 10.738282l2.21875 4.421874h-11.097656c-13.253907 0-24-10.746093-24-24v-16h320v16c0 13.253907-10.746094 24-24 24zm0 0" fill="#002d6b" style="fill: rgb(35, 42, 52);"></path></svg>